<svg width="50" height="50" viewBox="0 0 50 50" fill="none" xmlns="http://www.w3.org/2000/svg">
<path fill-rule="evenodd" clip-rule="evenodd" d="M44 25C44 30.0391 41.9982 34.8718 38.435 38.435C34.8718 41.9982 30.0391 44 25 44C19.9609 44 15.1282 41.9982 11.565 38.435C8.00178 34.8718 6 30.0391 6 25C6 19.9609 8.00178 15.1282 11.565 11.565C15.1282 8.00178 19.9609 6 25 6C30.0391 6 34.8718 8.00178 38.435 11.565C41.9982 15.1282 44 19.9609 44 25V25ZM34.5712 17.8037C34.4016 17.6347 34.1996 17.5016 33.9773 17.4124C33.7551 17.3232 33.5171 17.2797 33.2776 17.2846C33.0382 17.2895 32.8022 17.3426 32.5837 17.4408C32.3653 17.539 32.1689 17.6802 32.0062 17.856L23.7579 28.3654L18.787 23.3921C18.4493 23.0775 18.0027 22.9062 17.5413 22.9143C17.0798 22.9225 16.6395 23.1094 16.3131 23.4358C15.9868 23.7621 15.7999 24.2024 15.7917 24.6639C15.7836 25.1253 15.9549 25.572 16.2695 25.9096L22.5537 32.1962C22.723 32.3652 22.9246 32.4984 23.1465 32.5878C23.3684 32.6772 23.606 32.7209 23.8451 32.7165C24.0843 32.7121 24.3201 32.6595 24.5385 32.562C24.7569 32.4644 24.9535 32.3239 25.1164 32.1488L34.5974 20.2975C34.9206 19.9614 35.0992 19.512 35.0947 19.0458C35.0903 18.5795 34.9032 18.1336 34.5736 17.8037H34.5712Z" fill="white"/>
<circle cx="25" cy="25" r="24" stroke="#343538" stroke-width="2"/>
</svg>
